<svg width="56" height="56" viewBox="0 0 56 56" fill="none" xmlns="http://www.w3.org/2000/svg">
<circle cx="28" cy="28" r="28" fill="#189D70"/>
<g clip-path="url(#clip0_406_13406)">
<path d="M34.0315 42C33.878 42.0009 33.7258 41.9714 33.5836 41.9134C33.4415 41.8553 33.3122 41.7698 33.2032 41.6616L23.6715 32.13C23.1283 31.5881 22.6973 30.9444 22.4032 30.2357C22.1091 29.527 21.9578 28.7673 21.9578 28C21.9578 27.2327 22.1091 26.473 22.4032 25.7643C22.6973 25.0556 23.1283 24.4119 23.6715 23.87L33.2032 14.3383C33.312 14.2296 33.4411 14.1433 33.5832 14.0844C33.7254 14.0255 33.8777 13.9952 34.0315 13.9952C34.1854 13.9952 34.3377 14.0255 34.4798 14.0844C34.6219 14.1433 34.7511 14.2296 34.8599 14.3383C34.9686 14.4471 35.0549 14.5763 35.1138 14.7184C35.1727 14.8605 35.203 15.0128 35.203 15.1667C35.203 15.3205 35.1727 15.4728 35.1138 15.615C35.0549 15.7571 34.9686 15.8862 34.8599 15.995L25.3282 25.5267C24.6728 26.1829 24.3046 27.0725 24.3046 28C24.3046 28.9275 24.6728 29.8171 25.3282 30.4733L34.8599 40.005C34.9692 40.1134 35.056 40.2425 35.1152 40.3846C35.1745 40.5268 35.205 40.6793 35.205 40.8333C35.205 40.9873 35.1745 41.1398 35.1152 41.282C35.056 41.4242 34.9692 41.5532 34.8599 41.6616C34.7508 41.7698 34.6216 41.8553 34.4794 41.9134C34.3373 41.9714 34.1851 42.0009 34.0315 42Z" fill="white"/>
</g>
<defs>
<clipPath id="clip0_406_13406">
<rect width="28" height="28" fill="white" transform="translate(14 14)"/>
</clipPath>
</defs>
</svg>
