<svg width="56" height="56" viewBox="0 0 56 56" fill="none" xmlns="http://www.w3.org/2000/svg">
<circle cx="28" cy="28" r="28" fill="#189D70"/>
<g clip-path="url(#clip0_406_13409)">
<path d="M22.1666 42C22.0131 42.0009 21.8608 41.9714 21.7187 41.9134C21.5766 41.8553 21.4473 41.7698 21.3383 41.6616C21.2289 41.5532 21.1421 41.4242 21.0829 41.282C21.0237 41.1398 20.9932 40.9873 20.9932 40.8333C20.9932 40.6793 21.0237 40.5268 21.0829 40.3846C21.1421 40.2425 21.2289 40.1134 21.3383 40.005L30.8699 30.4733C31.5254 29.8171 31.8935 28.9275 31.8935 28C31.8935 27.0725 31.5254 26.1829 30.8699 25.5267L21.3383 15.995C21.1186 15.7753 20.9952 15.4774 20.9952 15.1667C20.9952 14.856 21.1186 14.558 21.3383 14.3383C21.5579 14.1187 21.8559 13.9952 22.1666 13.9952C22.4773 13.9952 22.7752 14.1187 22.9949 14.3383L32.5266 23.87C33.0698 24.4119 33.5008 25.0556 33.7949 25.7643C34.089 26.473 34.2404 27.2327 34.2404 28C34.2404 28.7673 34.089 29.527 33.7949 30.2357C33.5008 30.9444 33.0698 31.5881 32.5266 32.13L22.9949 41.6616C22.8859 41.7698 22.7566 41.8553 22.6145 41.9134C22.4723 41.9714 22.3201 42.0009 22.1666 42Z" fill="white"/>
</g>
<defs>
<clipPath id="clip0_406_13409">
<rect width="28" height="28" fill="white" transform="translate(14 14)"/>
</clipPath>
</defs>
</svg>
