<svg width="24" height="24" viewBox="0 0 24 24" fill="none" xmlns="http://www.w3.org/2000/svg">
<g clip-path="url(#clip0_406_13215)">
<path d="M0.0489987 11.7L0.753998 16.7C0.927288 17.8901 1.52172 18.9785 2.4293 19.7675C3.33689 20.5566 4.4974 20.9939 5.7 21L19 21C20.3256 20.9984 21.5964 20.4711 22.5338 19.5338C23.4711 18.5964 23.9984 17.3256 24 16L24 11C23.9984 9.67441 23.4711 8.40356 22.5338 7.46622C21.5964 6.52888 20.3256 6.00159 19 6L16.288 6L14.374 2.122C14.0522 1.4684 13.5062 0.952249 12.8356 0.667674C12.165 0.383099 11.4144 0.34907 10.7208 0.571791C10.0272 0.794512 9.43673 1.25914 9.05714 1.88094C8.67755 2.50273 8.53411 3.24026 8.653 3.959L8.989 6L5 6C4.28422 5.99996 3.57678 6.15361 2.92551 6.45055C2.27423 6.74749 1.6943 7.1808 1.22492 7.72119C0.75554 8.26157 0.407657 8.89644 0.204787 9.58287C0.00191592 10.2693 -0.0512114 10.9913 0.0489987 11.7ZM19 19L17 19L17 8L19 8C19.7957 8 20.5587 8.31607 21.1213 8.87868C21.6839 9.44129 22 10.2044 22 11L22 16C22 16.7956 21.6839 17.5587 21.1213 18.1213C20.5587 18.6839 19.7956 19 19 19ZM2.736 9.032C3.01758 8.70803 3.3654 8.44826 3.75597 8.27022C4.14654 8.09219 4.57077 8.00004 5 8L10.167 8C10.312 8.00003 10.4554 7.96851 10.587 7.90762C10.7187 7.84673 10.8355 7.75793 10.9294 7.64738C11.0233 7.53683 11.092 7.40718 11.1308 7.26742C11.1696 7.12766 11.1775 6.98113 11.154 6.838L10.626 3.638C10.6006 3.48947 10.6084 3.33717 10.6487 3.19197C10.6889 3.04677 10.7608 2.91225 10.859 2.798C10.9742 2.67381 11.1172 2.57875 11.2763 2.52063C11.4355 2.46251 11.6061 2.443 11.7742 2.4637C11.9423 2.48439 12.1031 2.54471 12.2434 2.63969C12.3837 2.73466 12.4994 2.86158 12.581 3.01L14.77 7.442C14.8277 7.55285 14.9058 7.65189 15 7.734L15 19L5.7 19C4.97774 18.9974 4.28047 18.7353 3.7353 18.2615C3.19012 17.7877 2.83335 17.1338 2.73 16.419L2.024 11.419C1.96478 10.9933 1.99771 10.5599 2.12055 10.1481C2.24339 9.73628 2.45327 9.35566 2.736 9.032Z" fill="white"/>
</g>
<defs>
<clipPath id="clip0_406_13215">
<rect width="24" height="24" fill="white" transform="translate(24 24) rotate(-180)"/>
</clipPath>
</defs>
</svg>
